<svg width="48" height="44" viewBox="0 0 48 44" fill="none" xmlns="http://www.w3.org/2000/svg"><path fill-rule="evenodd" clip-rule="evenodd" d="M37.7071 15.7071L38.4142 15L37.7071 14.2929L30.7071 7.29289L30 6.58579L28.5858 8L29.2929 8.70711L34.5858 14H28C24.134 14 21 17.134 21 21V26C21 28.7614 18.7614 31 16 31H10H9V33H10H16C19.866 33 23 29.866 23 26V21C23 18.2386 25.2386 16 28 16H34.5858L29.2929 21.2929L28.5858 22L30 23.4142L30.7071 22.7071L37.7071 15.7071Z" fill="black" fill-opacity="0.8"></path><rect x="41" y="12" width="6" height="6" rx="3" fill="black" fill-opacity="0.8" stroke="white" stroke-width="2"></rect><rect x="1" y="29" width="6" height="6" rx="3" fill="black" fill-opacity="0.8" stroke="white" stroke-width="2"></rect></svg>