<svg width="138" height="141" viewBox="0 0 138 141" fill="none" xmlns="http://www.w3.org/2000/svg">
<g filter="url(#filter0_d_557_4330)">
<rect x="4.99994" y="34.3164" width="104.5" height="104.5" transform="rotate(-14.0201 4.99994 34.3164)" fill="#80CAFF"/>
</g>
<g filter="url(#filter1_d_557_4330)">
<rect x="15.5141" y="17.4314" width="104.5" height="104.5" transform="rotate(-6.83212 15.5141 17.4314)" fill="#80CAFF"/>
</g>
<g filter="url(#filter2_d_557_4330)">
<rect x="27.9455" y="5" width="104.5" height="104.5" rx="44" fill="#80CAFF"/>
</g>
<g clip-path="url(#clip0_557_4330)">
<path d="M145.231 110V5C145.231 5 113.352 5 73.6106 5C57.6947 5 64.5157 43.8704 64.5157 43.8704C64.5157 43.8704 27 39.3271 27 53.4608C27 79.8198 27 110 27 110C27 110 52.0869 110 77.1738 110C102.261 110 145.231 110 145.231 110Z" fill="#80CAFF"/>
<path d="M145.231 110V5C145.231 5 113.352 5 73.6106 5C57.6947 5 64.5157 43.8704 64.5157 43.8704C64.5157 43.8704 27 39.3271 27 53.4608C27 79.8198 27 110 27 110C27 110 52.0869 110 77.1738 110C102.261 110 145.231 110 145.231 110Z" fill="url(#paint0_linear_557_4330)"/>
<path d="M145.231 110V5C145.231 5 113.352 5 73.6106 5C57.6947 5 64.5157 43.8704 64.5157 43.8704C64.5157 43.8704 27 39.3271 27 53.4608C27 79.8198 27 110 27 110C27 110 52.0869 110 77.1738 110C102.261 110 145.231 110 145.231 110Z" fill="url(#paint1_linear_557_4330)" fill-opacity="0.16"/>
</g>
<defs>
<filter id="filter0_d_557_4330" x="-6.10352e-05" y="4" width="136.703" height="136.703" filterUnits="userSpaceOnUse" color-interpolation-filters="sRGB">
<feFlood flood-opacity="0" result="BackgroundImageFix"/>
<feColorMatrix in="SourceAlpha" type="matrix" values="0 0 0 0 0 0 0 0 0 0 0 0 0 0 0 0 0 0 127 0" result="hardAlpha"/>
<feOffset/>
<feGaussianBlur stdDeviation="2.5"/>
<feComposite in2="hardAlpha" operator="out"/>
<feColorMatrix type="matrix" values="0 0 0 0 0 0 0 0 0 0 0 0 0 0 0 0 0 0 0.24 0"/>
<feBlend mode="normal" in2="BackgroundImageFix" result="effect1_dropShadow_557_4330"/>
<feBlend mode="normal" in="SourceGraphic" in2="effect1_dropShadow_557_4330" result="shape"/>
</filter>
<filter id="filter1_d_557_4330" x="10.5141" y="0" width="126.189" height="126.189" filterUnits="userSpaceOnUse" color-interpolation-filters="sRGB">
<feFlood flood-opacity="0" result="BackgroundImageFix"/>
<feColorMatrix in="SourceAlpha" type="matrix" values="0 0 0 0 0 0 0 0 0 0 0 0 0 0 0 0 0 0 127 0" result="hardAlpha"/>
<feOffset/>
<feGaussianBlur stdDeviation="2.5"/>
<feComposite in2="hardAlpha" operator="out"/>
<feColorMatrix type="matrix" values="0 0 0 0 0 0 0 0 0 0 0 0 0 0 0 0 0 0 0.24 0"/>
<feBlend mode="normal" in2="BackgroundImageFix" result="effect1_dropShadow_557_4330"/>
<feBlend mode="normal" in="SourceGraphic" in2="effect1_dropShadow_557_4330" result="shape"/>
</filter>
<filter id="filter2_d_557_4330" x="22.9455" y="0" width="114.5" height="114.5" filterUnits="userSpaceOnUse" color-interpolation-filters="sRGB">
<feFlood flood-opacity="0" result="BackgroundImageFix"/>
<feColorMatrix in="SourceAlpha" type="matrix" values="0 0 0 0 0 0 0 0 0 0 0 0 0 0 0 0 0 0 127 0" result="hardAlpha"/>
<feOffset/>
<feGaussianBlur stdDeviation="2.5"/>
<feComposite in2="hardAlpha" operator="out"/>
<feColorMatrix type="matrix" values="0 0 0 0 0 0 0 0 0 0 0 0 0 0 0 0 0 0 0.24 0"/>
<feBlend mode="normal" in2="BackgroundImageFix" result="effect1_dropShadow_557_4330"/>
<feBlend mode="normal" in="SourceGraphic" in2="effect1_dropShadow_557_4330" result="shape"/>
</filter>
<linearGradient id="paint0_linear_557_4330" x1="27" y1="57.5003" x2="127.743" y2="57.5003" gradientUnits="userSpaceOnUse">
<stop stop-color="white" stop-opacity="0"/>
<stop offset="1" stop-color="white" stop-opacity="0.18"/>
</linearGradient>
<linearGradient id="paint1_linear_557_4330" x1="322.578" y1="241.755" x2="63.0038" y2="-6.79955" gradientUnits="userSpaceOnUse">
<stop offset="0.718538" stop-opacity="0"/>
<stop offset="1"/>
</linearGradient>
<clipPath id="clip0_557_4330">
<rect width="106" height="105" fill="white" transform="translate(27 5)"/>
</clipPath>
</defs>
</svg>
