<svg width="56" height="56" viewBox="0 0 56 56" fill="none" xmlns="http://www.w3.org/2000/svg"><rect x="8" y="8" width="40" height="40" rx="8" fill="white"></rect><rect x="8.5" y="8.5" width="39" height="39" rx="7.5" stroke="black" stroke-opacity="0.2"></rect><path fill-rule="evenodd" clip-rule="evenodd" d="M32 20C32 21.8382 30.7125 23.3937 29.0234 23.862L29.0844 24.1232L30.2429 29.1436H25.7571L26.5638 25.6477L26.9817 23.862C25.2926 23.3937 24 21.8382 24 20C24 17.7909 25.7909 16 28 16C30.2091 16 32 17.7909 32 20ZM24.6622 24.9936C23.0544 23.9178 22 22.0828 22 20C22 16.6863 24.6863 14 28 14C31.3137 14 34 16.6863 34 20C34 22.0841 32.9465 23.92 31.3383 24.9955L32.3326 29.3042L36.2169 30.1674L37 30.3414V31.1436V36.1436V37.1436H36H20H19V36.1436V31.1436V30.3414L19.7831 30.1674L23.6674 29.3042L24.6622 24.9936ZM35 31.9457L31.3902 31.1436H24.6098L21 31.9457V35.1436H35V31.9457ZM20 42.1436V40.1436H36V42.1436H20Z" fill="black" fill-opacity="0.9"></path></svg>