<svg width="56" height="56" viewBox="0 0 56 56" fill="none" xmlns="http://www.w3.org/2000/svg"><rect x="8" y="8" width="40" height="40" rx="8" fill="white"></rect><mask id="path-3-inside-1_1019679_55716" fill="white"><path fill-rule="evenodd" clip-rule="evenodd" d="M33.3576 13.6424L32 11L30.6424 13.6424L28 15L30.6424 16.3576L32 19L33.3576 16.3576L36 15L33.3576 13.6424ZM39.1682 26H41H42V27V38C42 40.2091 40.2091 42 38 42H18C15.7909 42 14 40.2091 14 38V27V26H15H28.1837C28.2225 25.3193 28.3893 24.6345 28.6965 23.9794C29.9863 21.2293 33.2613 20.0454 36.0114 21.3352C37.9039 22.2227 39.0547 24.0503 39.1682 26ZM37.1625 26C37.0532 24.8026 36.3294 23.6933 35.1622 23.146C33.4121 22.3252 31.3281 23.0786 30.5073 24.8287C30.329 25.2088 30.225 25.6047 30.1893 26H37.1625ZM25.8981 19.4218L22.4218 15.828L18.828 19.3044L22.3044 22.8981L25.8981 19.4218ZM23.8593 14.4375L22.4688 13L21.0312 14.3905L17.4375 17.8669L16 19.2574L17.3905 20.6949L20.8669 24.2887L22.2574 25.7262L23.6949 24.3356L27.2887 20.8593L28.7262 19.4688L27.3356 18.0313L23.8593 14.4375ZM16 38V28H40V38C40 39.1046 39.1046 40 38 40H18C16.8954 40 16 39.1046 16 38Z"></path></mask><path fill-rule="evenodd" clip-rule="evenodd" d="M33.3576 13.6424L32 11L30.6424 13.6424L28 15L30.6424 16.3576L32 19L33.3576 16.3576L36 15L33.3576 13.6424ZM39.1682 26H41H42V27V38C42 40.2091 40.2091 42 38 42H18C15.7909 42 14 40.2091 14 38V27V26H15H28.1837C28.2225 25.3193 28.3893 24.6345 28.6965 23.9794C29.9863 21.2293 33.2613 20.0454 36.0114 21.3352C37.9039 22.2227 39.0547 24.0503 39.1682 26ZM37.1625 26C37.0532 24.8026 36.3294 23.6933 35.1622 23.146C33.4121 22.3252 31.3281 23.0786 30.5073 24.8287C30.329 25.2088 30.225 25.6047 30.1893 26H37.1625ZM25.8981 19.4218L22.4218 15.828L18.828 19.3044L22.3044 22.8981L25.8981 19.4218ZM23.8593 14.4375L22.4688 13L21.0312 14.3905L17.4375 17.8669L16 19.2574L17.3905 20.6949L20.8669 24.2887L22.2574 25.7262L23.6949 24.3356L27.2887 20.8593L28.7262 19.4688L27.3356 18.0313L23.8593 14.4375ZM16 38V28H40V38C40 39.1046 39.1046 40 38 40H18C16.8954 40 16 39.1046 16 38Z" fill="black" fill-opacity="0.9"></path><path d="M32 11L33.7789 10.086L32 6.6237L30.2211 10.086L32 11ZM33.3576 13.6424L31.5787 14.5564L31.8723 15.1277L32.4436 15.4213L33.3576 13.6424ZM30.6424 13.6424L31.5564 15.4213L32.1277 15.1277L32.4213 14.5564L30.6424 13.6424ZM28 15L27.086 13.2211L23.6237 15L27.086 16.7789L28 15ZM30.6424 16.3576L32.4213 15.4436L32.1277 14.8723L31.5564 14.5787L30.6424 16.3576ZM32 19L30.2211 19.914L32 23.3763L33.7789 19.914L32 19ZM33.3576 16.3576L32.4436 14.5787L31.8723 14.8723L31.5787 15.4436L33.3576 16.3576ZM36 15L36.914 16.7789L40.3763 15L36.914 13.2211L36 15ZM39.1682 26L37.1715 26.1162L37.2812 28H39.1682V26ZM42 26H44V24H42V26ZM14 26V24H12V26H14ZM28.1837 26V28H30.0729L30.1804 26.1138L28.1837 26ZM28.6965 23.9794L26.8858 23.1302V23.1302L28.6965 23.9794ZM36.0114 21.3352L35.1622 23.146V23.146L36.0114 21.3352ZM37.1625 26V28H39.3533L39.1542 25.8183L37.1625 26ZM35.1622 23.146L34.313 24.9567V24.9567L35.1622 23.146ZM30.5073 24.8287L28.6965 23.9794L28.6965 23.9794L30.5073 24.8287ZM30.1893 26L28.1974 25.8203L28.0008 28H30.1893V26ZM22.4218 15.828L23.8593 14.4375L22.4688 13L21.0312 14.3905L22.4218 15.828ZM25.8981 19.4218L27.2887 20.8593L28.7262 19.4688L27.3356 18.0313L25.8981 19.4218ZM18.828 19.3044L17.4375 17.8669L16 19.2574L17.3905 20.6949L18.828 19.3044ZM22.3044 22.8981L20.8669 24.2887L22.2574 25.7262L23.6949 24.3356L22.3044 22.8981ZM22.4688 13L23.9063 11.6095L22.5157 10.172L21.0782 11.5625L22.4688 13ZM23.8593 14.4375L22.4218 15.828L22.4218 15.828L23.8593 14.4375ZM21.0312 14.3905L22.4218 15.828L22.4218 15.828L21.0312 14.3905ZM17.4375 17.8669L16.047 16.4294H16.047L17.4375 17.8669ZM16 19.2574L14.6095 17.8199L13.172 19.2104L14.5625 20.6479L16 19.2574ZM17.3905 20.6949L18.828 19.3044L18.828 19.3044L17.3905 20.6949ZM20.8669 24.2887L22.3044 22.8981H22.3044L20.8669 24.2887ZM22.2574 25.7262L20.8199 27.1167L22.2104 28.5542L23.6479 27.1637L22.2574 25.7262ZM23.6949 24.3356L22.3044 22.8981V22.8981L23.6949 24.3356ZM27.2887 20.8593L28.6792 22.2968V22.2968L27.2887 20.8593ZM28.7262 19.4688L30.1167 20.9063L31.5542 19.5157L30.1637 18.0782L28.7262 19.4688ZM27.3356 18.0313L28.7731 16.6407L28.7731 16.6407L27.3356 18.0313ZM16 28V26H14V28H16ZM40 28H42V26H40V28ZM30.2211 11.914L31.5787 14.5564L35.1366 12.7283L33.7789 10.086L30.2211 11.914ZM32.4213 14.5564L33.7789 11.914L30.2211 10.086L28.8634 12.7283L32.4213 14.5564ZM28.914 16.7789L31.5564 15.4213L29.7283 11.8634L27.086 13.2211L28.914 16.7789ZM31.5564 14.5787L28.914 13.2211L27.086 16.7789L29.7283 18.1366L31.5564 14.5787ZM33.7789 18.086L32.4213 15.4436L28.8634 17.2717L30.2211 19.914L33.7789 18.086ZM31.5787 15.4436L30.2211 18.086L33.7789 19.914L35.1366 17.2717L31.5787 15.4436ZM35.086 13.2211L32.4436 14.5787L34.2717 18.1366L36.914 16.7789L35.086 13.2211ZM32.4436 15.4213L35.086 16.7789L36.914 13.2211L34.2717 11.8634L32.4436 15.4213ZM39.1682 28H41V24H39.1682V28ZM41 28H42V24H41V28ZM40 26V27H44V26H40ZM40 27V38H44V27H40ZM40 38C40 39.1046 39.1046 40 38 40V44C41.3137 44 44 41.3137 44 38H40ZM38 40H18V44H38V40ZM18 40C16.8954 40 16 39.1046 16 38H12C12 41.3137 14.6863 44 18 44V40ZM16 38V27H12V38H16ZM16 27V26H12V27H16ZM14 28H15V24H14V28ZM15 28H28.1837V24H15V28ZM30.1804 26.1138C30.2049 25.6836 30.3102 25.2488 30.5073 24.8287L26.8858 23.1302C26.4684 24.0201 26.24 24.955 26.1869 25.8862L30.1804 26.1138ZM30.5073 24.8287C31.3281 23.0786 33.4121 22.3252 35.1622 23.146L36.8607 19.5244C33.1105 17.7657 28.6446 19.38 26.8858 23.1302L30.5073 24.8287ZM35.1622 23.146C36.3641 23.7096 37.099 24.8697 37.1715 26.1162L41.1648 25.8838C41.0104 23.2309 39.4437 20.7359 36.8607 19.5244L35.1622 23.146ZM39.1542 25.8183C38.9831 23.9427 37.8478 22.1964 36.0114 21.3352L34.313 24.9567C34.811 25.1903 35.1234 25.6625 35.1708 26.1817L39.1542 25.8183ZM36.0114 21.3352C33.2613 20.0454 29.9863 21.2293 28.6965 23.9794L32.318 25.6779C32.6698 24.9278 33.563 24.605 34.313 24.9567L36.0114 21.3352ZM28.6965 23.9794C28.4179 24.5735 28.2537 25.1964 28.1974 25.8203L32.1812 26.1797C32.1963 26.013 32.2401 25.8441 32.318 25.6779L28.6965 23.9794ZM30.1893 28H37.1625V24H30.1893V28ZM20.9843 17.2186L24.4606 20.8123L27.3356 18.0313L23.8593 14.4375L20.9843 17.2186ZM20.2186 20.7419L23.8123 17.2655L21.0312 14.3905L17.4375 17.8669L20.2186 20.7419ZM23.7419 21.5076L20.2655 17.9138L17.3905 20.6949L20.8669 24.2887L23.7419 21.5076ZM24.5076 17.9843L20.9138 21.4606L23.6949 24.3356L27.2887 20.8593L24.5076 17.9843ZM21.0312 14.3905L22.4218 15.828L25.2968 13.047L23.9063 11.6095L21.0312 14.3905ZM22.4218 15.828L23.8593 14.4375L21.0782 11.5625L19.6407 12.953L22.4218 15.828ZM18.828 19.3044L22.4218 15.828L19.6407 12.953L16.047 16.4294L18.828 19.3044ZM17.3905 20.6949L18.828 19.3044L16.047 16.4294L14.6095 17.8199L17.3905 20.6949ZM18.828 19.3044L17.4375 17.8669L14.5625 20.6479L15.953 22.0854L18.828 19.3044ZM22.3044 22.8981L18.828 19.3044L15.953 22.0854L19.4294 25.6792L22.3044 22.8981ZM23.6949 24.3356L22.3044 22.8981L19.4294 25.6792L20.8199 27.1167L23.6949 24.3356ZM22.3044 22.8981L20.8669 24.2887L23.6479 27.1637L25.0854 25.7731L22.3044 22.8981ZM25.8981 19.4218L22.3044 22.8981L25.0854 25.7731L28.6792 22.2968L25.8981 19.4218ZM27.3356 18.0313L25.8981 19.4218L28.6792 22.2968L30.1167 20.9063L27.3356 18.0313ZM25.8981 19.4218L27.2887 20.8593L30.1637 18.0782L28.7731 16.6407L25.8981 19.4218ZM22.4218 15.828L25.8981 19.4218L28.7731 16.6407L25.2968 13.047L22.4218 15.828ZM14 28V38H18V28H14ZM40 26H16V30H40V26ZM42 38V28H38V38H42ZM38 42C40.2091 42 42 40.2091 42 38H38V42ZM18 42H38V38H18V42ZM14 38C14 40.2091 15.7909 42 18 42V38H18H14Z" fill="black" fill-opacity="0.9" mask="url(#path-3-inside-1_1019679_55716)"></path><rect x="8.5" y="8.5" width="39" height="39" rx="7.5" stroke="black" stroke-opacity="0.2"></rect></svg>