<svg width="46" height="45" viewBox="0 0 46 45" fill="none" xmlns="http://www.w3.org/2000/svg">
<rect width="46" height="45" fill="#1E1E1E"/>
<g clip-path="url(#clip0_303_2)">
<path d="M23.5 22.25C23.5 20.9902 24.0004 19.782 24.8912 18.8912C25.782 18.0004 26.9902 17.5 28.25 17.5C29.5098 17.5 30.718 18.0004 31.6088 18.8912C32.4996 19.782 33 20.9902 33 22.25C33 23.5098 32.4996 24.718 31.6088 25.6088C30.718 26.4996 29.5098 27 28.25 27C26.9902 27 25.782 26.4996 24.8912 25.6088C24.0004 24.718 23.5 23.5098 23.5 22.25V22.25Z" fill="#F472B6"/>
<path d="M14 31.75C14 30.4902 14.5004 29.282 15.3912 28.3912C16.282 27.5004 17.4902 27 18.75 27H23.5V31.75C23.5 33.0098 22.9996 34.218 22.1088 35.1088C21.218 35.9996 20.0098 36.5 18.75 36.5C17.4902 36.5 16.282 35.9996 15.3912 35.1088C14.5004 34.218 14 33.0098 14 31.75V31.75Z" fill="#4ADE80"/>
<path d="M23.5 8V17.5H28.25C29.5098 17.5 30.718 16.9996 31.6088 16.1088C32.4996 15.218 33 14.0098 33 12.75C33 11.4902 32.4996 10.282 31.6088 9.39124C30.718 8.50044 29.5098 8 28.25 8H23.5Z" fill="#FF7262"/>
<path d="M14 12.75C14 14.0098 14.5004 15.218 15.3912 16.1088C16.282 16.9996 17.4902 17.5 18.75 17.5H23.5V8H18.75C17.4902 8 16.282 8.50044 15.3912 9.39124C14.5004 10.282 14 11.4902 14 12.75V12.75Z" fill="#F24E1E"/>
<path d="M14 22.25C14 23.5098 14.5004 24.718 15.3912 25.6088C16.282 26.4996 17.4902 27 18.75 27H23.5V17.5H18.75C17.4902 17.5 16.282 18.0004 15.3912 18.8912C14.5004 19.782 14 20.9902 14 22.25V22.25Z" fill="#8B5CF6"/>
</g>
<defs>
<clipPath id="clip0_303_2">
<rect width="19" height="28.5" fill="white" transform="translate(14 8)"/>
</clipPath>
</defs>
</svg>
