<svg width="38" height="58" viewBox="0 0 38 58" fill="none" xmlns="http://www.w3.org/2000/svg">
<mask id="mask0_4_11" style="mask-type:luminance" maskUnits="userSpaceOnUse" x="0" y="0" width="38" height="58">
<path d="M38 0H0V58H38V0Z" fill="white"/>
</mask>
<g mask="url(#mask0_4_11)">
<path d="M19 29C19 26.4362 20.0009 23.9775 21.7825 22.1646C23.5641 20.3518 25.9804 19.3333 28.5 19.3333C31.0196 19.3333 33.4359 20.3518 35.2175 22.1646C36.9991 23.9775 38 26.4362 38 29C38 31.5638 36.9991 34.0225 35.2175 35.8354C33.4359 37.6482 31.0196 38.6667 28.5 38.6667C25.9804 38.6667 23.5641 37.6482 21.7825 35.8354C20.0009 34.0225 19 31.5638 19 29Z" fill="#F472B6"/>
<path d="M0 48.3333C0 45.7696 1.00089 43.3108 2.78249 41.498C4.56408 39.6851 6.98044 38.6667 9.5 38.6667H19V48.3333C19 50.8971 17.9991 53.3559 16.2175 55.1687C14.4359 56.9816 12.0196 58 9.5 58C6.98044 58 4.56408 56.9816 2.78249 55.1687C1.00089 53.3559 0 50.8971 0 48.3333Z" fill="#4ADE80"/>
<path d="M19 0V19.3333H28.5C31.0196 19.3333 33.4359 18.3149 35.2175 16.502C36.9991 14.6892 38 12.2304 38 9.66667C38 7.10291 36.9991 4.64415 35.2175 2.8313C33.4359 1.01845 31.0196 0 28.5 0H19Z" fill="#FF7262"/>
<path d="M0 9.66667C0 12.2304 1.00089 14.6892 2.78249 16.502C4.56408 18.3149 6.98044 19.3333 9.5 19.3333H19V0H9.5C6.98044 0 4.56408 1.01845 2.78249 2.8313C1.00089 4.64415 0 7.10291 0 9.66667Z" fill="#F24E1E"/>
<path d="M0 29C0 31.5638 1.00089 34.0225 2.78249 35.8354C4.56408 37.6482 6.98044 38.6667 9.5 38.6667H19V19.3333H9.5C6.98044 19.3333 4.56408 20.3518 2.78249 22.1646C1.00089 23.9775 0 26.4362 0 29Z" fill="#8B5CF6"/>
</g>
</svg>
