<svg class="svg" width="17" height="18" viewBox="0 0 17 18" xmlns="http://www.w3.org/2000/svg"><path d="M11 1H5V0h6v1zm4 9c0 3.866-3.134 7-7 7-3.866 0-7-3.134-7-7 0-3.866 3.134-7 7-7 1.768 0 3.383.656 4.616 1.737l.09.091.557.556C14.344 6.616 15 8.232 15 10zm-.285-4.35l.113-.114.707-.708.707-.707-.707-.707-.707-.707L14.121 2l-.707.707-.707.707-.068.068C11.331 2.549 9.73 2 8 2c-4.418 0-8 3.582-8 8 0 4.418 3.582 8 8 8 4.418 0 8-3.582 8-8 0-1.604-.472-3.098-1.285-4.35zm-.723-.95l.13.128.706-.707-.707-.707-.701.702c.2.184.391.38.572.584zM8.5 10V5h-1v5c0 .276.224.5.5.5.276 0 .5-.224.5-.5z" fill-rule="evenodd" fill-opacity=".9" fill="#000" stroke="none"></path></svg>